<?xml version="1.0" encoding="UTF-8" ?>
<!DOCTYPE svg PUBLIC "-//W3C//DTD SVG 1.1//EN" "http://www.w3.org/Graphics/SVG/1.1/DTD/svg11.dtd">
<svg width="48pt" height="48pt" viewBox="0 0 48 48" version="1.1" xmlns="http://www.w3.org/2000/svg">
<g id="#ffffffff">
<path fill="#ffffff" opacity="1.00" d=" M 19.44 0.00 L 28.55 0.00 C 33.03 1.60 37.42 3.79 40.84 7.16 C 44.21 10.57 46.39 14.97 48.00 19.44 L 48.00 28.55 C 46.40 33.03 44.21 37.42 40.84 40.84 C 37.42 44.21 33.03 46.39 28.56 48.00 L 19.45 48.00 C 14.97 46.39 10.57 44.21 7.15 40.84 C 3.78 37.43 1.61 33.03 0.00 28.56 L 0.00 19.45 C 1.60 14.97 3.78 10.57 7.16 7.16 C 10.58 3.79 14.96 1.61 19.44 0.00 M 2.69 23.01 C 2.14 32.19 8.56 41.23 17.26 44.01 C 15.08 34.46 9.81 25.88 7.93 16.25 C 10.02 15.13 12.40 15.06 14.71 15.11 C 16.23 17.76 17.36 20.60 18.36 23.48 C 19.40 26.24 20.63 29.43 23.62 30.58 C 27.22 32.51 32.44 30.18 32.96 26.03 C 31.83 21.28 28.76 17.19 28.07 12.30 C 29.87 11.90 31.68 11.55 33.50 11.26 C 36.04 15.61 37.32 20.60 40.11 24.81 C 41.16 26.52 43.08 27.23 45.01 27.25 C 47.32 15.27 36.98 3.15 25.00 2.69 C 13.74 1.97 3.14 11.81 2.69 23.01 M 30.04 34.98 C 27.68 35.82 25.12 35.50 22.66 35.51 C 23.66 38.96 24.95 42.35 26.99 45.33 C 34.58 43.87 40.99 38.42 44.05 31.39 C 41.29 31.21 38.55 30.82 35.86 30.17 C 33.95 31.80 32.28 33.78 30.04 34.98 Z" />
</g>
<g id="#00853eff">
<path fill="#00853e" opacity="1.00" d=" M 2.69 23.01 C 3.14 11.81 13.74 1.97 25.00 2.69 C 36.98 3.15 47.32 15.27 45.01 27.25 C 43.08 27.23 41.16 26.52 40.11 24.81 C 37.32 20.60 36.04 15.61 33.50 11.26 C 31.68 11.55 29.87 11.90 28.07 12.30 C 28.76 17.19 31.83 21.28 32.96 26.03 C 32.44 30.18 27.22 32.51 23.62 30.58 C 20.63 29.43 19.40 26.24 18.36 23.48 C 17.36 20.60 16.23 17.76 14.71 15.11 C 12.40 15.06 10.02 15.13 7.93 16.25 C 9.81 25.88 15.08 34.46 17.26 44.01 C 8.56 41.23 2.14 32.19 2.69 23.01 Z" />
<path fill="#00853e" opacity="1.00" d=" M 30.04 34.98 C 32.28 33.78 33.95 31.80 35.86 30.17 C 38.55 30.82 41.29 31.21 44.05 31.39 C 40.99 38.42 34.58 43.87 26.99 45.33 C 24.95 42.35 23.66 38.96 22.66 35.51 C 25.12 35.50 27.68 35.82 30.04 34.98 Z" />
</g>
</svg>
